<svg height="512" viewBox="0 0 24 24" width="512" xmlns="http://www.w3.org/2000/svg"><g id="_14_algorithm_team_manage" data-name="14 algorithm,team,manage"><path d="m5 8h-2v-2a3 3 0 0 1 3-3h2v2h-2a1 1 0 0 0 -1 1zm0 10v-2h-2v2a3 3 0 0 0 3 3h2v-2h-2a1 1 0 0 1 -1-1zm14 0a1 1 0 0 1 -1 1h-2v2h2a3 3 0 0 0 3-3v-2h-2zm0-12v2h2v-2a3 3 0 0 0 -3-3h-1.94v2h1.94a1 1 0 0 1 1 1zm4 6a3 3 0 0 1 -5.82 1h-2.18v1a1 1 0 0 1 -1 1h-1v2h1a1 1 0 0 1 1 1v4a1 1 0 0 1 -1 1h-4a1 1 0 0 1 -1-1v-4a1 1 0 0 1 1-1h1v-2h-1a1 1 0 0 1 -1-1v-1h-2.18a3 3 0 1 1 0-2h2.18v-1a1 1 0 0 1 1-1h1v-2h-1a1 1 0 0 1 -1-1v-4a1 1 0 0 1 1-1h4a1 1 0 0 1 1 1v4a1 1 0 0 1 -1 1h-1v2h1a1 1 0 0 1 1 1v1h2.18a3 3 0 0 1 5.82 1zm-12-7h2v-2h-2zm-6 7a1 1 0 1 0 -1 1 1 1 0 0 0 1-1zm8 7h-2v2h2zm0-8h-2v2h2zm8 1a1 1 0 1 0 -1 1 1 1 0 0 0 1-1z"/></g></svg>